<?xml version="1.0" encoding="utf-8"?>
<!-- Generator: Adobe Illustrator 28.1.0, SVG Export Plug-In . SVG Version: 6.00 Build 0)  -->
<svg version="1.1" id="katman_1" xmlns="http://www.w3.org/2000/svg" xmlns:xlink="http://www.w3.org/1999/xlink" x="0px" y="0px"
	 viewBox="0 0 973.6 876.5" style="enable-background:new 0 0 973.6 876.5;" xml:space="preserve">
<style type="text/css">
	.st0{display:none;fill:#002569;}
	.st1{fill-rule:evenodd;clip-rule:evenodd;fill:#FFFFFF;}
	.st2{fill-rule:evenodd;clip-rule:evenodd;fill:#B3B3B3;}
	.st3{fill-rule:evenodd;clip-rule:evenodd;fill:#939393;}
</style>
<rect x="-7.8" class="st0" width="981.4" height="884.3"/>
<g id="media_telegram">
	<g id="Group-50-Copy" transform="translate(9.000000, 11.000000)">
		<g id="Group-54" transform="translate(0.598291, 0.666667)">
			<path id="Fill-20" class="st1" d="M804.8,164.6L687,738.2c0,0-16.5,39.8-61.8,20.7l-272-201.3l-98.9-46.1L87.8,457.4
				c0,0-25.5-8.8-28-27.9s28.8-29.4,28.8-29.4l661.8-250.7C750.4,149.4,804.8,126.4,804.8,164.6"/>
			<path id="Fill-22" class="st2" d="M332.3,731.8c0,0-7.9-0.7-17.8-31c-9.9-30.2-60.2-189.3-60.2-189.3L654,266.4
				c0,0,23.1-13.5,22.3,0c0,0,4.1,2.4-8.2,13.5c-12.4,11.1-314,272.9-314,272.9"/>
			<path id="Fill-24" class="st3" d="M457.5,634.8l-107.6,94.7c0,0-8.4,6.2-17.6,2.3l20.6-175.9"/>
		</g>
	</g>
</g>
</svg>
